<svg width="32" height="32" viewBox="0 0 32 32" xmlns="http://www.w3.org/2000/svg">
  <rect width="32" height="32" rx="8" ry="8" fill="#18181b"/>
  <g transform="translate(2, 2)">
    <svg width="28" height="28" viewBox="0 0 1000 1000">
      <g transform="translate(0, 1000) scale(0.1, -0.1)">
        <path
          d="M4920 7264 c-21 -9 -251 -230 -605 -583 -313 -312 -738 -734 -943 -937 -208 -205 -382 -386 -393 -406 -22 -44 -25 -106 -5 -151 16 -39 723 -742 781 -777 50 -31 132 -33 190 -6 26 13 201 180 495 472 308 307 467 458 492 468 49 21 94 20 143 -3 29 -13 333 -315 1059 -1052 1152 -1168 1156 -1172 1201 -1193 39 -19 128 -20 168 -3 15 7 119 102 230 212 1499 1488 1838 1827 1855 1861 31 63 35 98 17 157 -16 49 -64 100 -909 943 -491 490 -910 903 -932 918 -55 36 -129 44 -191 21 -40 -15 -106 -76 -417 -384 -208 -207 -374 -380 -382 -398 -18 -41 -18 -104 0 -146 8 -19 198 -215 456 -472 441 -438 480 -482 480 -545 0 -45 -36 -105 -102 -171 -77 -77 -124 -96 -190 -79 -48 13 -65 30 -1498 1457 -548 546 -796 787 -822 798 -47 19 -132 19 -178 -1z M2282 7190 c-44 -20 -171 -142 -961 -925 -582 -577 -883 -882 -906 -917 -25 -41 -27 -129 -2 -178 24 -49 2032 -2051 2079 -2073 49 -23 139 -22 186 2 20 11 202 185 403 388 380 383 390 394 389 474 -1 64 -38 106 -589 654 -601 600 -594 591 -571 676 11 39 59 92 455 489 243 245 450 459 459 477 23 45 20 127 -5 179 -29 61 -694 716 -760 749 -59 30 -118 32 -177 5z"
          fill="#fafafa"
        />
      </g>
    </svg>
  </g>
</svg>
